<?xml version="1.0" encoding="UTF-8" standalone="no"?>
<svg
   xmlns:dc="http://purl.org/dc/elements/1.1/"
   xmlns:cc="http://creativecommons.org/ns#"
   xmlns:rdf="http://www.w3.org/1999/02/22-rdf-syntax-ns#"
   xmlns:svg="http://www.w3.org/2000/svg"
   xmlns="http://www.w3.org/2000/svg"
   xmlns:sodipodi="http://sodipodi.sourceforge.net/DTD/sodipodi-0.dtd"
   xmlns:inkscape="http://www.inkscape.org/namespaces/inkscape"
   width="32"
   height="32"
   version="1.1"
   id="svg8"
   sodipodi:docname="close-active.svg"
   inkscape:version="0.92.4 5da689c313, 2019-01-14">
  <metadata
     id="metadata14">
    <rdf:RDF>
      <cc:Work
         rdf:about="">
        <dc:format>image/svg+xml</dc:format>
        <dc:type
           rdf:resource="http://purl.org/dc/dcmitype/StillImage" />
        <dc:title></dc:title>
      </cc:Work>
    </rdf:RDF>
  </metadata>
  <defs
     id="defs12" />
  <sodipodi:namedview
     pagecolor="#ffffff"
     bordercolor="#666666"
     borderopacity="1"
     objecttolerance="10"
     gridtolerance="10"
     guidetolerance="10"
     inkscape:pageopacity="0"
     inkscape:pageshadow="2"
     inkscape:window-width="640"
     inkscape:window-height="480"
     id="namedview10"
     showgrid="false"
     inkscape:zoom="9.362793"
     inkscape:cx="14.1309"
     inkscape:cy="16"
     inkscape:window-x="0"
     inkscape:window-y="26"
     inkscape:window-maximized="0"
     inkscape:current-layer="svg8" />
  <path
     fill="#282828"
     d="M0 0h32v32H0z"
     id="path2" />
  <path
     fill="#fff"
     fill-opacity=".1"
     d="M0 0h32v1H0z"
     id="path4" />
  <circle
     r="8"
     cy="16"
     cx="16"
     fill="#e63d3a"
     opacity=".6"
     id="circle6" />
  <path
     style="fill:#ae6366;fill-opacity:1;fill-rule:evenodd;stroke:none;stroke-width:1.16783762;enable-background:new"
     d="m 16.127737,24.260808 c 4.514778,0 8.174792,-3.660003 8.174792,-8.174863 0,-4.51486 -3.660014,-8.1748629 -8.174792,-8.1748629 -4.51491,0 -8.1749345,3.6600029 -8.1749345,8.1748629 0,4.51486 3.6600245,8.174863 8.1749345,8.174863"
     id="path2-3"
     inkscape:connector-curvature="0" />
  <path
     style="fill:#845858;fill-opacity:1;fill-rule:evenodd;stroke:none;stroke-width:1.16783762;enable-background:new"
     d="m 16.127744,23.677006 c 4.192282,0 7.590866,-3.398758 7.590866,-7.591061 0,-4.19242 -3.398584,-7.590944 -7.590866,-7.590944 -4.192436,0 -7.5910227,3.398524 -7.5910227,7.590944 0,4.192303 3.3985867,7.591061 7.5910227,7.591061"
     id="path4-6"
     inkscape:connector-curvature="0" />
</svg>
