<?xml version="1.0" encoding="UTF-8" standalone="no"?>
<svg
   xmlns:dc="http://purl.org/dc/elements/1.1/"
   xmlns:cc="http://creativecommons.org/ns#"
   xmlns:rdf="http://www.w3.org/1999/02/22-rdf-syntax-ns#"
   xmlns:svg="http://www.w3.org/2000/svg"
   xmlns="http://www.w3.org/2000/svg"
   xmlns:sodipodi="http://sodipodi.sourceforge.net/DTD/sodipodi-0.dtd"
   xmlns:inkscape="http://www.inkscape.org/namespaces/inkscape"
   width="32"
   height="32"
   version="1.1"
   id="svg10"
   sodipodi:docname="shade-active.svg"
   inkscape:version="0.92.4 5da689c313, 2019-01-14">
  <metadata
     id="metadata16">
    <rdf:RDF>
      <cc:Work
         rdf:about="">
        <dc:format>image/svg+xml</dc:format>
        <dc:type
           rdf:resource="http://purl.org/dc/dcmitype/StillImage" />
        <dc:title></dc:title>
      </cc:Work>
    </rdf:RDF>
  </metadata>
  <defs
     id="defs14" />
  <sodipodi:namedview
     pagecolor="#ffffff"
     bordercolor="#666666"
     borderopacity="1"
     objecttolerance="10"
     gridtolerance="10"
     guidetolerance="10"
     inkscape:pageopacity="0"
     inkscape:pageshadow="2"
     inkscape:window-width="1366"
     inkscape:window-height="714"
     id="namedview12"
     showgrid="false"
     inkscape:zoom="16.104004"
     inkscape:cx="14.1309"
     inkscape:cy="16"
     inkscape:window-x="0"
     inkscape:window-y="26"
     inkscape:window-maximized="1"
     inkscape:current-layer="svg10" />
  <path
     fill="#282828"
     d="M0 0h32v32H0z"
     id="path2" />
  <path
     fill="#fff"
     fill-opacity=".1"
     d="M0 0h32v1H0z"
     id="path4" />
  <circle
     r="8"
     cy="16"
     cx="16"
     fill="#cd2cd8"
     opacity=".6"
     id="circle6" />
  <path
     d="M10 18l1.41 1.41L16 14.82l4.59 4.59L22 18l-6-6z"
     fill="#fff"
     id="path8" />
  <g
     transform="matrix(1.1552409,0,0,1.1552409,2.1890185,-1185.7967)"
     id="g6"
     style="fill:#6c7c3c;stroke-width:0.1;stroke-miterlimit:4;stroke-dasharray:none;enable-background:new">
    <path
       style="fill:#6c7c3c;fill-opacity:1;fill-rule:evenodd;stroke:none;stroke-width:0.1;stroke-miterlimit:4;stroke-dasharray:none"
       d="m 12.000061,1047.3622 c 3.865929,0 6.999939,-3.134 6.999939,-7 0,-3.866 -3.13401,-7 -6.999939,-7 -3.8660427,0 -7.0000616,3.134 -7.0000616,7 0,3.866 3.1340189,7 7.0000616,7"
       id="path2-0"
       inkscape:connector-curvature="0" />
    <path
       style="opacity:1;fill:#6c7c3c;fill-opacity:1;fill-rule:evenodd;stroke:none;stroke-width:0.1;stroke-miterlimit:4;stroke-dasharray:none"
       d="m 12.000067,1046.8623 c 3.589781,0 6.499933,-2.9103 6.499933,-6.5001 0,-3.5899 -2.910152,-6.5 -6.499933,-6.5 -3.5899136,0 -6.5000676,2.9101 -6.5000676,6.5 0,3.5898 2.910154,6.5001 6.5000676,6.5001"
       id="path4-9"
       inkscape:connector-curvature="0" />
  </g>
  <circle
     style="opacity:1;vector-effect:none;fill:#808848;fill-opacity:1;fill-rule:evenodd;stroke:none;stroke-width:0.1079131;stroke-linecap:butt;stroke-linejoin:miter;stroke-miterlimit:4;stroke-dasharray:none;stroke-dashoffset:0;stroke-opacity:1;enable-background:new"
     id="path818"
     cx="16.049549"
     cy="16.036598"
     r="7.551713" />
</svg>
